<svg xmlns="http://www.w3.org/2000/svg" viewBox="0 0 512 512">
  <rect width="512" height="512" rx="100" fill="#4f46e5"/>
  <rect x="140" y="150" width="232" height="28" rx="14" fill="white" opacity="0.9"/>
  <rect x="140" y="210" width="180" height="28" rx="14" fill="white" opacity="0.7"/>
  <rect x="140" y="270" width="210" height="28" rx="14" fill="white" opacity="0.7"/>
  <circle cx="370" cy="370" r="90" fill="#25D366"/>
  <path d="M408 357c-4-8-16-14-17-14-1-1-6-3-10-1-3 1-5 4-7 7-1 2-3 5-4 6-2 1-3 1-5 0-3-1-12-5-20-13-8-7-13-16-14-18-1-2 0-4 1-5l4-5c1-1 2-3 3-5 1-2 0-5 0-6 0 0-4-11-8-15-4-4-8-3-10-3h-4c-1 0-4 1-7 4-3 3-10 10-10 23s10 27 11 28c2 2 19 30 47 41 28 12 28 8 33 7 5 0 16-6 18-13 2-6 2-11 1-13z" fill="white"/>
</svg>
